<svg id="visual" viewBox="0 0 900 600" width="900" height="600" xmlns="http://www.w3.org/2000/svg" xmlns:xlink="http://www.w3.org/1999/xlink" version="1.1"><rect x="0" y="0" width="900" height="600" fill="#001220"></rect><defs><linearGradient id="grad1_0" x1="33.3%" y1="0%" x2="100%" y2="100%"><stop offset="20%" stop-color="#fbae3c" stop-opacity="1"></stop><stop offset="80%" stop-color="#fbae3c" stop-opacity="1"></stop></linearGradient></defs><defs><linearGradient id="grad1_1" x1="33.3%" y1="0%" x2="100%" y2="100%"><stop offset="20%" stop-color="#fbae3c" stop-opacity="1"></stop><stop offset="80%" stop-color="#96446e" stop-opacity="1"></stop></linearGradient></defs><defs><linearGradient id="grad1_2" x1="33.3%" y1="0%" x2="100%" y2="100%"><stop offset="20%" stop-color="#001220" stop-opacity="1"></stop><stop offset="80%" stop-color="#96446e" stop-opacity="1"></stop></linearGradient></defs><defs><linearGradient id="grad2_0" x1="0%" y1="0%" x2="66.7%" y2="100%"><stop offset="20%" stop-color="#fbae3c" stop-opacity="1"></stop><stop offset="80%" stop-color="#fbae3c" stop-opacity="1"></stop></linearGradient></defs><defs><linearGradient id="grad2_1" x1="0%" y1="0%" x2="66.7%" y2="100%"><stop offset="20%" stop-color="#96446e" stop-opacity="1"></stop><stop offset="80%" stop-color="#fbae3c" stop-opacity="1"></stop></linearGradient></defs><defs><linearGradient id="grad2_2" x1="0%" y1="0%" x2="66.7%" y2="100%"><stop offset="20%" stop-color="#96446e" stop-opacity="1"></stop><stop offset="80%" stop-color="#001220" stop-opacity="1"></stop></linearGradient></defs><g transform="translate(900, 0)"><path d="M0 459.7C-41.3 458.9 -82.6 458 -119 444C-155.4 430.1 -186.8 403 -218.5 378.5C-250.2 353.9 -282.2 331.9 -300.5 300.5C-318.8 269.1 -323.5 228.4 -339.5 196C-355.5 163.6 -382.8 139.7 -404.7 108.4C-426.6 77.2 -443.2 38.6 -459.7 0L0 0Z" fill="#3d3056"></path><path d="M0 306.5C-27.5 305.9 -55.1 305.3 -79.3 296C-103.6 286.7 -124.5 268.7 -145.7 252.3C-166.8 235.9 -188.1 221.3 -200.3 200.3C-212.6 179.4 -215.7 152.2 -226.3 130.7C-237 109.1 -255.2 93.1 -269.8 72.3C-284.4 51.5 -295.5 25.7 -306.5 0L0 0Z" fill="#e1685e"></path><path d="M0 153.2C-13.8 153 -27.5 152.7 -39.7 148C-51.8 143.4 -62.3 134.3 -72.8 126.2C-83.4 118 -94.1 110.6 -100.2 100.2C-106.3 89.7 -107.8 76.1 -113.2 65.3C-118.5 54.5 -127.6 46.6 -134.9 36.1C-142.2 25.7 -147.7 12.9 -153.2 0L0 0Z" fill="#fbae3c"></path></g><g transform="translate(0, 600)"><path d="M0 -459.7C42.3 -460.3 84.6 -460.8 119 -444C153.3 -427.3 179.7 -393.2 215 -372.4C250.3 -351.6 294.5 -344 314.7 -314.7C334.9 -285.4 331.1 -234.3 342.1 -197.5C353.1 -160.7 378.8 -138 400.9 -107.4C422.9 -76.9 441.3 -38.4 459.7 0L0 0Z" fill="#3d3056"></path><path d="M0 -306.5C28.2 -306.8 56.4 -307.2 79.3 -296C102.2 -284.9 119.8 -262.1 143.3 -248.3C166.9 -234.4 196.3 -229.3 209.8 -209.8C223.2 -190.2 220.7 -156.2 228.1 -131.7C235.4 -107.1 252.5 -92 267.2 -71.6C281.9 -51.2 294.2 -25.6 306.5 0L0 0Z" fill="#e1685e"></path><path d="M0 -153.2C14.1 -153.4 28.2 -153.6 39.7 -148C51.1 -142.4 59.9 -131.1 71.7 -124.1C83.4 -117.2 98.2 -114.7 104.9 -104.9C111.6 -95.1 110.4 -78.1 114 -65.8C117.7 -53.6 126.3 -46 133.6 -35.8C141 -25.6 147.1 -12.8 153.2 0L0 0Z" fill="#fbae3c"></path></g></svg>