<svg id="visual" viewBox="0 0 960 540" width="960" height="540" xmlns="http://www.w3.org/2000/svg" xmlns:xlink="http://www.w3.org/1999/xlink" version="1.1"><path d="M0 33L17.8 32.2C35.7 31.3 71.3 29.7 106.8 30.7C142.3 31.7 177.7 35.3 213.2 33.5C248.7 31.7 284.3 24.3 320 23.3C355.7 22.3 391.3 27.7 426.8 30.3C462.3 33 497.7 33 533.2 36.7C568.7 40.3 604.3 47.7 640 44.2C675.7 40.7 711.3 26.3 746.8 27.2C782.3 28 817.7 44 853.2 48.5C888.7 53 924.3 46 942.2 42.5L960 39L960 0L942.2 0C924.3 0 888.7 0 853.2 0C817.7 0 782.3 0 746.8 0C711.3 0 675.7 0 640 0C604.3 0 568.7 0 533.2 0C497.7 0 462.3 0 426.8 0C391.3 0 355.7 0 320 0C284.3 0 248.7 0 213.2 0C177.7 0 142.3 0 106.8 0C71.3 0 35.7 0 17.8 0L0 0Z" fill="#79a1e8"></path><path d="M0 228L17.8 216.3C35.7 204.7 71.3 181.3 106.8 165.2C142.3 149 177.7 140 213.2 123.7C248.7 107.3 284.3 83.7 320 92.7C355.7 101.7 391.3 143.3 426.8 182.2C462.3 221 497.7 257 533.2 256C568.7 255 604.3 217 640 179.2C675.7 141.3 711.3 103.7 746.8 100.2C782.3 96.7 817.7 127.3 853.2 144.3C888.7 161.3 924.3 164.7 942.2 166.3L960 168L960 37L942.2 40.5C924.3 44 888.7 51 853.2 46.5C817.7 42 782.3 26 746.8 25.2C711.3 24.3 675.7 38.7 640 42.2C604.3 45.7 568.7 38.3 533.2 34.7C497.7 31 462.3 31 426.8 28.3C391.3 25.7 355.7 20.3 320 21.3C284.3 22.3 248.7 29.7 213.2 31.5C177.7 33.3 142.3 29.7 106.8 28.7C71.3 27.7 35.7 29.3 17.8 30.2L0 31Z" fill="#4c84df"></path><path d="M0 271L17.8 253.8C35.7 236.7 71.3 202.3 106.8 188C142.3 173.7 177.7 179.3 213.2 165.8C248.7 152.3 284.3 119.7 320 122.3C355.7 125 391.3 163 426.8 203.5C462.3 244 497.7 287 533.2 291.5C568.7 296 604.3 262 640 225.2C675.7 188.3 711.3 148.7 746.8 146.8C782.3 145 817.7 181 853.2 197.2C888.7 213.3 924.3 209.7 942.2 207.8L960 206L960 166L942.2 164.3C924.3 162.7 888.7 159.3 853.2 142.3C817.7 125.3 782.3 94.7 746.8 98.2C711.3 101.7 675.7 139.3 640 177.2C604.3 215 568.7 253 533.2 254C497.7 255 462.3 219 426.8 180.2C391.3 141.3 355.7 99.7 320 90.7C284.3 81.7 248.7 105.3 213.2 121.7C177.7 138 142.3 147 106.8 163.2C71.3 179.3 35.7 202.7 17.8 214.3L0 226Z" fill="#2e6ac2"></path><path d="M0 336L17.8 317C35.7 298 71.3 260 106.8 246.5C142.3 233 177.7 244 213.2 231.5C248.7 219 284.3 183 320 188.3C355.7 193.7 391.3 240.3 426.8 273.7C462.3 307 497.7 327 533.2 319C568.7 311 604.3 275 640 248.8C675.7 222.7 711.3 206.3 746.8 212.5C782.3 218.7 817.7 247.3 853.2 253.7C888.7 260 924.3 244 942.2 236L960 228L960 204L942.2 205.8C924.3 207.7 888.7 211.3 853.2 195.2C817.7 179 782.3 143 746.8 144.8C711.3 146.7 675.7 186.3 640 223.2C604.3 260 568.7 294 533.2 289.5C497.7 285 462.3 242 426.8 201.5C391.3 161 355.7 123 320 120.3C284.3 117.7 248.7 150.3 213.2 163.8C177.7 177.3 142.3 171.7 106.8 186C71.3 200.3 35.7 234.7 17.8 251.8L0 269Z" fill="#2558a2"></path><path d="M0 357L17.8 345.3C35.7 333.7 71.3 310.3 106.8 300.5C142.3 290.7 177.7 294.3 213.2 284.5C248.7 274.7 284.3 251.3 320 254C355.7 256.7 391.3 285.3 426.8 311.3C462.3 337.3 497.7 360.7 533.2 353.5C568.7 346.3 604.3 308.7 640 279C675.7 249.3 711.3 227.7 746.8 233C782.3 238.3 817.7 270.7 853.2 280.7C888.7 290.7 924.3 278.3 942.2 272.2L960 266L960 226L942.2 234C924.3 242 888.7 258 853.2 251.7C817.7 245.3 782.3 216.7 746.8 210.5C711.3 204.3 675.7 220.7 640 246.8C604.3 273 568.7 309 533.2 317C497.7 325 462.3 305 426.8 271.7C391.3 238.3 355.7 191.7 320 186.3C284.3 181 248.7 217 213.2 229.5C177.7 242 142.3 231 106.8 244.5C71.3 258 35.7 296 17.8 315L0 334Z" fill="#2558a2"></path><path d="M0 455L17.8 448.7C35.7 442.3 71.3 429.7 106.8 417.8C142.3 406 177.7 395 213.2 390.5C248.7 386 284.3 388 320 395.3C355.7 402.7 391.3 415.3 426.8 432.3C462.3 449.3 497.7 470.7 533.2 476.8C568.7 483 604.3 474 640 460.5C675.7 447 711.3 429 746.8 420C782.3 411 817.7 411 853.2 408.3C888.7 405.7 924.3 400.3 942.2 397.7L960 395L960 264L942.2 270.2C924.3 276.3 888.7 288.7 853.2 278.7C817.7 268.7 782.3 236.3 746.8 231C711.3 225.7 675.7 247.3 640 277C604.3 306.7 568.7 344.3 533.2 351.5C497.7 358.7 462.3 335.3 426.8 309.3C391.3 283.3 355.7 254.7 320 252C284.3 249.3 248.7 272.7 213.2 282.5C177.7 292.3 142.3 288.7 106.8 298.5C71.3 308.3 35.7 331.7 17.8 343.3L0 355Z" fill="#2e6ac2"></path><path d="M0 482L17.8 479.2C35.7 476.3 71.3 470.7 106.8 473.3C142.3 476 177.7 487 213.2 488.8C248.7 490.7 284.3 483.3 320 480.7C355.7 478 391.3 480 426.8 489C462.3 498 497.7 514 533.2 522C568.7 530 604.3 530 640 526.5C675.7 523 711.3 516 746.8 512.5C782.3 509 817.7 509 853.2 509C888.7 509 924.3 509 942.2 509L960 509L960 393L942.2 395.7C924.3 398.3 888.7 403.7 853.2 406.3C817.7 409 782.3 409 746.8 418C711.3 427 675.7 445 640 458.5C604.3 472 568.7 481 533.2 474.8C497.7 468.7 462.3 447.3 426.8 430.3C391.3 413.3 355.7 400.7 320 393.3C284.3 386 248.7 384 213.2 388.5C177.7 393 142.3 404 106.8 415.8C71.3 427.7 35.7 440.3 17.8 446.7L0 453Z" fill="#4c84df"></path><path d="M0 541L17.8 541C35.7 541 71.3 541 106.8 541C142.3 541 177.7 541 213.2 541C248.7 541 284.3 541 320 541C355.7 541 391.3 541 426.8 541C462.3 541 497.7 541 533.2 541C568.7 541 604.3 541 640 541C675.7 541 711.3 541 746.8 541C782.3 541 817.7 541 853.2 541C888.7 541 924.3 541 942.2 541L960 541L960 507L942.2 507C924.3 507 888.7 507 853.2 507C817.7 507 782.3 507 746.8 510.5C711.3 514 675.7 521 640 524.5C604.3 528 568.7 528 533.2 520C497.7 512 462.3 496 426.8 487C391.3 478 355.7 476 320 478.7C284.3 481.3 248.7 488.7 213.2 486.8C177.7 485 142.3 474 106.8 471.3C71.3 468.7 35.7 474.3 17.8 477.2L0 480Z" fill="#79a1e8"></path></svg>